<svg id="Layer_2" data-name="Layer 2" xmlns="http://www.w3.org/2000/svg" viewBox="0 0 482.44 467.98"><defs><style>.cls-1{fill:#fff;}</style></defs><title>Untitled-1</title><path d="M299.22,275.08c5-19.32.49-40.33-14-55.23a56.27,56.27,0,0,0-30-16.17A59.55,59.55,0,0,0,244,202.62a60.74,60.74,0,0,0-14.64,1.78,62.51,62.51,0,0,0-28.59,15.94l-34,32.92-16,15.45L92.84,325a61.91,61.91,0,0,0-19.08,42.65,56.68,56.68,0,0,0,57.16,59,61.91,61.91,0,0,0,43.23-17.72l51.11-49.53a121.47,121.47,0,0,0,56,7l-76.48,74.11a105.74,105.74,0,0,1-73.85,30.12A100.69,100.69,0,0,1,29.78,366.22a105.68,105.68,0,0,1,32.44-72.86l97.47-94.45,10.5-10.17a107,107,0,0,1,35.92-23.06A105.16,105.16,0,0,1,244,158.62a103,103,0,0,1,28.49,4,98.84,98.84,0,0,1,11.19,3.93q3.4,1.42,6.69,3.11a100.59,100.59,0,0,1,51.47,64.11Z" transform="translate(-17.23 -20.12)"/><path class="cls-1" d="M466.44,56.06A117.3,117.3,0,0,0,427.55,29.4,119.54,119.54,0,0,0,381,20.12a123.15,123.15,0,0,0-86,35.05L191.6,155.37A125.4,125.4,0,0,0,163,176.17L55,280.79a123.15,123.15,0,0,0-37.75,84.88A118.18,118.18,0,0,0,135.92,488.1,123.12,123.12,0,0,0,222,453L325.36,352.85A125.75,125.75,0,0,0,354,332l108-104.61C510.43,180.43,512.46,103.55,466.44,56.06ZM204.77,440.48a105.74,105.74,0,0,1-73.85,30.12A100.69,100.69,0,0,1,29.78,366.22a105.68,105.68,0,0,1,32.44-72.86l97.47-94.45,10.5-10.17a107,107,0,0,1,35.92-23.06A105.16,105.16,0,0,1,244,158.62a103,103,0,0,1,28.49,4,98.84,98.84,0,0,1,11.19,3.93q3.4,1.42,6.69,3.11a100.59,100.59,0,0,1,51.47,64.11l-42.66,41.34c5-19.32.49-40.33-14-55.23a56.27,56.27,0,0,0-30-16.17A59.55,59.55,0,0,0,244,202.62a60.74,60.74,0,0,0-14.64,1.78,62.51,62.51,0,0,0-28.59,15.94l-34,32.92-16,15.45L92.84,325a61.91,61.91,0,0,0-19.08,42.65,56.68,56.68,0,0,0,57.16,59,61.91,61.91,0,0,0,43.23-17.72l51.11-49.53a121.47,121.47,0,0,0,56,7ZM305.4,155.1,350,111.91A44.54,44.54,0,0,1,381,99.12,39.52,39.52,0,0,1,409.71,111c15.7,16.21,14.46,43-2.77,59.67l-47.27,45.8a118.12,118.12,0,0,0-54.27-61.4ZM279.55,286.52h0a43.55,43.55,0,0,1-11.62,1.58,39.17,39.17,0,0,1-39.67-40.94,44.16,44.16,0,0,1,9.15-25.46A43.69,43.69,0,0,1,249,220.12,39.52,39.52,0,0,1,277.71,232C291.87,246.65,292.25,269.86,279.55,286.52Zm-97,44.64a117.82,117.82,0,0,0,29,22L167,396.31a44.54,44.54,0,0,1-31.06,12.79,39.17,39.17,0,0,1-39.67-40.94A44.53,44.53,0,0,1,110,337.52l47.21-45.75A117.28,117.28,0,0,0,182.52,331.16Zm267.22-116.3-89.4,86.63-18.57,18a107,107,0,0,1-35.92,23.06,105.16,105.16,0,0,1-37.93,7.06,103,103,0,0,1-28.49-4,100.63,100.63,0,0,1-68.32-67.3l40.34-39.09a60.26,60.26,0,0,0-.69,7.37A56.59,56.59,0,0,0,261,305.2a58.59,58.59,0,0,0,6.92.4,60.74,60.74,0,0,0,14.64-1.78,62.51,62.51,0,0,0,28.59-15.94L345.07,255l20.15-19.52,53.9-52.23c24.16-23.4,25.57-61.27,3.15-84.41A56.83,56.83,0,0,0,381,81.62a61.91,61.91,0,0,0-43.23,17.72l-49.75,48.21a120.18,120.18,0,0,0-39-6.43,121.55,121.55,0,0,0-19.12,1.5l77.27-74.88A105.74,105.74,0,0,1,381,37.62a102.25,102.25,0,0,1,39.68,7.9,100.08,100.08,0,0,1,33.15,22.72C493.18,108.8,491.32,174.57,449.74,214.86Z" transform="translate(-17.23 -20.12)"/><path d="M449.74,214.86l-89.4,86.63-18.57,18a107,107,0,0,1-35.92,23.06,105.16,105.16,0,0,1-37.93,7.06,103,103,0,0,1-28.49-4,100.63,100.63,0,0,1-68.32-67.3l40.34-39.09a60.26,60.26,0,0,0-.69,7.37A56.59,56.59,0,0,0,261,305.2a58.59,58.59,0,0,0,6.92.4,60.74,60.74,0,0,0,14.64-1.78,62.51,62.51,0,0,0,28.59-15.94L345.07,255l20.15-19.52,53.9-52.23c24.16-23.4,25.57-61.27,3.15-84.41A56.83,56.83,0,0,0,381,81.62a61.91,61.91,0,0,0-43.23,17.72l-49.75,48.21a120.18,120.18,0,0,0-39-6.43,121.55,121.55,0,0,0-19.12,1.5l77.27-74.88A105.74,105.74,0,0,1,381,37.62a102.25,102.25,0,0,1,39.68,7.9,100.08,100.08,0,0,1,33.15,22.72C493.18,108.8,491.32,174.57,449.74,214.86Z" transform="translate(-17.23 -20.12)"/></svg>