<?xml version="1.0" encoding="utf-8"?>
<svg viewBox="48.8057 170.4866 452.465 433.0118" width="452.465" height="433.0118" xmlns="http://www.w3.org/2000/svg">
  <path d="M 318.316 407.947 C 323.316 388.627 318.806 367.617 304.316 352.717 C 296.228 344.356 285.747 338.707 274.316 336.547 C 270.618 335.84 266.861 335.485 263.096 335.487 C 258.162 335.484 253.246 336.081 248.456 337.267 C 237.679 339.947 227.811 345.449 219.866 353.207 L 185.866 386.127 L 169.866 401.577 L 111.936 457.867 C 100.25 469.046 93.401 484.354 92.856 500.517 C 91.528 532.913 117.595 559.819 150.016 559.517 C 166.187 559.483 181.703 553.123 193.246 541.797 L 244.356 492.267 C 262.214 498.965 281.399 501.363 300.356 499.267 L 223.876 573.377 C 204.135 592.672 177.631 603.482 150.026 603.497 C 92.75 603.798 46.759 556.325 48.876 499.087 C 49.758 471.496 61.402 445.345 81.316 426.227 L 178.786 331.777 L 189.286 321.607 C 199.589 311.586 211.805 303.743 225.206 298.547 C 237.293 293.88 250.139 291.486 263.096 291.487 C 272.733 291.481 282.323 292.828 291.586 295.487 C 295.391 296.572 299.128 297.884 302.776 299.417 C 305.043 300.364 307.273 301.401 309.466 302.527 C 334.971 315.59 353.694 338.911 360.936 366.637 L 318.316 407.947 Z"/>
  <path d="M 468.836 347.727 L 379.436 434.357 L 360.866 452.357 C 350.563 462.378 338.347 470.221 324.946 475.417 C 312.846 480.09 299.987 482.483 287.016 482.477 C 277.379 482.483 267.789 481.137 258.526 478.477 C 225.84 469.036 200.138 443.717 190.206 411.177 L 230.546 372.087 C 230.165 374.527 229.935 376.989 229.856 379.457 C 228.61 409.157 250.555 434.758 280.096 438.067 C 282.393 438.337 284.704 438.471 287.016 438.467 C 291.95 438.471 296.866 437.873 301.656 436.687 C 312.433 434.008 322.301 428.506 330.246 420.747 L 364.166 387.867 L 384.316 368.347 L 438.216 316.117 C 462.376 292.717 463.786 254.847 441.366 231.707 C 430.541 220.569 415.628 214.346 400.096 214.487 C 383.925 214.521 368.409 220.881 356.866 232.207 L 307.116 280.417 C 294.56 276.136 281.382 273.963 268.116 273.987 C 261.713 273.983 255.32 274.484 248.996 275.487 L 326.266 200.607 C 346.002 181.317 372.498 170.508 400.096 170.487 C 413.717 170.451 427.208 173.137 439.776 178.387 C 452.249 183.641 463.526 191.37 472.926 201.107 C 512.276 241.667 510.416 307.437 468.836 347.727 Z"/>
</svg>